# xmcd
#
# Track frame offsets:
#	150
#	10408
#	27074
#	41960
#	56282
#	75999
#	87009
#	96793
#	108004
#	124959
#	136672
#	150115
#	167483
#	185143
#
# Disc length: 2640 seconds
#
# Revision: 1
# Processed by: cddbd v1.5.2PL0 Copyright (c) Steve Scherf et al.
# Submitted via: audiograbber 1.83.01
#
DISCID=990a4e0e
DTITLE=Junior Barber and Beartracks - Rough Edges
DYEAR=1900
DGENRE=Bluebrass
TTITLE0=Rough Edges
TTITLE1=Lovesick Blues
TTITLE2=Blue Yodel #3
TTITLE3=Howlin' At the Moon
TTITLE4=How About You
TTITLE5=I Washed My Hands In Muddy Water
TTITLE6=Steel Guitar Rag
TTITLE7=Lake Champlain
TTITLE8=How Far is Heaven
TTITLE9=Mind Your Own Business
TTITLE10=Lon Black Limousine
TTITLE11=A Grandmother's Love
TTITLE12='Til a Tear Becomes a Rose
TTITLE13=New River Train
EXTD=
EXTT0=
EXTT1=
EXTT2=
EXTT3=
EXTT4=
EXTT5=
EXTT6=
EXTT7=
EXTT8=
EXTT9=
EXTT10=
EXTT11=
EXTT12=
EXTT13=
PLAYORDER=
